<svg width="50" height="50" viewBox="0 0 53 50" fill="none" xmlns="http://www.w3.org/2000/svg">
<path d="M27.4482 2.45215C40.3398 2.45215 50.7402 12.3078 50.7402 24.4053C50.7402 36.5028 40.3398 46.3584 27.4482 46.3584C14.5567 46.3583 4.15625 36.5027 4.15625 24.4053C4.15625 12.3078 14.5567 2.4522 27.4482 2.45215Z" fill="url(#paint0_linear_442_2782)" fill-opacity="0.59" stroke="#8F9577"/>
<ellipse cx="26.9326" cy="25.3815" rx="21.206" ry="20.5007" fill="url(#paint1_linear_442_2782)"/>
<ellipse cx="27.4491" cy="24.4056" rx="22.7577" ry="21.4769" fill="#A2B696" fill-opacity="0.16"/>
<ellipse cx="27.4491" cy="24.4056" rx="22.7577" ry="21.4769" fill="url(#paint2_linear_442_2782)"/>
<g filter="url(#filter0_f_442_2782)">
<path d="M44.5157 34.6561C44.5157 41.9347 32.6197 46.8589 23.8258 44.9065C15.5418 44.9065 5.20703 34.613 5.20703 27.3344C5.20703 20.0559 7.26686 14.6436 15.5508 14.6436C23.8347 14.6436 44.5157 27.3776 44.5157 34.6561Z" fill="#D2CEA7" fill-opacity="0.18"/>
</g>
<g filter="url(#filter1_f_442_2782)">
<path d="M47.6181 27.822C47.6181 36.3877 34.7829 46.6979 25.2948 44.4002C16.3569 44.4002 6.75781 32.9709 6.75781 24.4052C6.75781 15.8395 12.8193 7.32129 21.7572 7.32129C30.6951 7.32129 47.6181 19.2563 47.6181 27.822Z" fill="#D2CEA7" fill-opacity="0.18"/>
</g>
<g filter="url(#filter2_f_442_2782)">
<path d="M43.9981 39.0488C39.3432 42.9537 35.7226 45.8827 27.4471 45.8827C14.8784 45.8827 4.68945 36.2672 4.68945 24.4058C4.68945 12.5444 17.6199 28.3103 26.4127 32.2151C32.0286 34.7091 43.9981 39.0488 43.9981 39.0488Z" fill="url(#paint3_linear_442_2782)"/>
</g>
<g filter="url(#filter3_f_442_2782)">
<ellipse cx="19.4853" cy="13.4625" rx="19.4853" ry="13.4625" transform="matrix(0.591014 0.806661 -0.837477 0.546472 25.5488 3.85059)" fill="#D4D0A8" fill-opacity="0.32"/>
</g>
<g filter="url(#filter4_f_442_2782)">
<ellipse cx="15.7764" cy="7.41013" rx="15.7764" ry="7.41013" transform="matrix(0.85567 0.517521 -0.561801 0.827273 15.0195 14.2793)" fill="#D4D0A8" fill-opacity="0.32"/>
</g>
<g filter="url(#filter5_f_442_2782)">
<ellipse cx="10.4591" cy="15.2817" rx="10.4591" ry="15.2817" transform="matrix(0.601092 -0.79918 0.830824 0.556536 15.0352 16.7178)" fill="#9F9D81" fill-opacity="0.25"/>
</g>
<g filter="url(#filter6_f_442_2782)">
<path d="M24.7542 3.77775C25.0355 3.77714 25.4835 3.82474 25.4269 3.90637C25.3699 3.98857 25.116 4.0479 25.0678 4.05383C24.88 4.08289 24.7071 4.13014 24.5378 4.18308C24.3685 4.23602 24.1867 4.25144 23.9984 4.30021C23.8084 4.34942 23.6166 4.42232 23.4435 4.46503C23.2256 4.51877 23.1606 4.55891 22.9824 4.59289C22.7992 4.62783 22.5667 4.75005 22.3761 4.69107C22.3302 4.67685 22.2833 4.64202 22.3419 4.58741C22.4615 4.47588 22.7495 4.24172 22.9518 4.16604C23.1824 4.07975 23.489 3.93992 24.0438 3.85922C24.3107 3.82039 24.5613 3.77817 24.7542 3.77775Z" fill="#FFEBDE"/>
<path d="M24.7542 3.77775C25.0355 3.77714 25.4835 3.82474 25.4269 3.90637C25.3699 3.98857 25.116 4.0479 25.0678 4.05383C24.88 4.08289 24.7071 4.13014 24.5378 4.18308C24.3685 4.23602 24.1867 4.25144 23.9984 4.30021C23.8084 4.34942 23.6166 4.42232 23.4435 4.46503C23.2256 4.51877 23.1606 4.55891 22.9824 4.59289C22.7992 4.62783 22.5667 4.75005 22.3761 4.69107C22.3302 4.67685 22.2833 4.64202 22.3419 4.58741C22.4615 4.47588 22.7495 4.24172 22.9518 4.16604C23.1824 4.07975 23.489 3.93992 24.0438 3.85922C24.3107 3.82039 24.5613 3.77817 24.7542 3.77775Z" stroke="#FFEBDE"/>
</g>
<g filter="url(#filter7_f_442_2782)">
<path d="M20.0351 5.08807C20.433 5.01971 21.1007 4.97948 21.078 5.10838C21.0552 5.23814 20.7375 5.38287 20.6735 5.40281C20.4281 5.48892 20.2166 5.59713 20.0142 5.71252C19.8118 5.82792 19.5653 5.89331 19.333 6.00738C19.0986 6.12249 18.8785 6.27147 18.6635 6.37332C18.3928 6.50151 18.3291 6.57379 18.1008 6.66454C17.8659 6.75786 17.6229 6.98625 17.3116 6.94868C17.2365 6.93961 17.1457 6.90166 17.1901 6.81046C17.281 6.62421 17.5238 6.22437 17.7569 6.06894C18.0226 5.89174 18.3582 5.62067 19.0867 5.37358C19.4373 5.2547 19.7623 5.13494 20.0351 5.08807Z" fill="#FFEBDE" fill-opacity="0.85"/>
</g>
<g filter="url(#filter8_f_442_2782)">
<path d="M6.24219 26.3574C6.24219 26.7002 6.61192 29.3595 6.7584 29.7742C6.90889 30.2003 7.12914 30.8238 7.27562 31.2385C7.42611 31.6646 7.14454 31.4871 7.4375 31.9877C7.69135 32.4215 7.84017 32.8332 8.00475 33.2479C8.18644 33.7057 8.57091 34.0757 8.86387 34.4904C9.16842 34.9215 9.5584 35.3183 9.85136 35.733C10.1443 36.1477 10.4362 36.5608 10.6381 36.9755C10.8627 37.4369 11.3863 37.735 11.7347 38.0804C12.0621 38.4049 12.5261 39.0715 12.965 39.5364C13.7836 40.4035 14.5945 40.672 15.0339 41.0008C15.4915 41.3431 16.128 41.7005 16.5856 41.977C17.1099 42.2938 17.6978 42.6705 18.1372 42.8611C18.6079 43.0652 19.2494 43.1819 19.6889 43.4413C20.0987 43.6832 20.8011 43.6882 21.2405 43.9294C21.6804 44.171 21.1515 43.8794 21.5909 44.1036C22.0039 44.3143 22.4682 44.3972 22.9076 44.5354C23.347 44.6736 24.278 44.4153 24.7174 44.6395C25.1304 44.8501 25.8135 44.826 26.93 44.8471C30.0333 44.9057 30.6102 44.6417 31.0677 44.4175" stroke="#A1B496" stroke-opacity="0.51" stroke-width="2" stroke-linecap="round"/>
</g>
<g filter="url(#filter9_f_442_2782)">
<path d="M29.4453 44.367C29.8885 44.367 30.7807 44.2744 31.7466 44.2035C32.9579 43.8548 34.5 43.3383 34.7967 43.2218C34.9462 43.1516 35.0934 43.059 35.5425 42.8232" stroke="#FFEBDE" stroke-linecap="round"/>
</g>
<g filter="url(#filter10_f_442_2782)">
<path d="M8 33.1016C8.02801 33.2536 8.19229 33.6082 8.33084 33.9397C8.45988 34.2484 8.63304 34.5493 9.10871 35.0554C9.48534 35.4561 9.80542 35.9165 10.0799 36.3621C10.4572 36.9747 10.7091 37.3392 11.2944 37.9214C11.6363 38.2615 11.909 38.7077 12.1968 39.0381C12.5063 39.3935 12.9175 39.6706 13.6648 40.3266C14.1106 40.7179 14.522 40.9336 14.8767 41.2249C15.1771 41.4714 15.528 41.5904 15.922 41.8293C16.2543 42.0308 16.5869 42.1688 16.9133 42.3707C17.2397 42.5726 17.6183 42.7734 18.0531 42.9871C18.4796 43.1968 18.947 43.4263 19.3562 43.641C19.6684 43.8047 20.0604 43.9292 20.414 44.0923C20.7397 44.2051 21.064 44.3045 21.3896 44.4042C21.4713 44.4293 21.5518 44.4539 21.7968 44.4781" stroke="#DAE9D3" stroke-opacity="0.45" stroke-linecap="round"/>
</g>
<path d="M42.4238 31.5147C42.4238 31.5779 42.4238 31.6411 42.524 31.642C42.6242 31.643 42.8245 31.5798 42.8286 31.3232" stroke="#DAE9D3" stroke-opacity="0.45" stroke-linecap="round"/>
<g filter="url(#filter11_f_442_2782)">
<path d="M40.9334 36.4809C41.6465 35.7141 41.9813 35.2698 42.385 35.1434C42.7299 35.1434 43.0646 35.1436 43.3355 35.1761C43.8072 35.2718 44.215 35.4652 44.5507 35.7524C44.6857 35.9132 44.7854 36.1054 44.7516 36.2952C44.6836 36.6772 44.6372 37.3712 43.8681 38.116C42.5838 39.3596 41.8207 40.2426 40.8238 40.2815C40.0133 40.3131 39.2832 40.231 39.0019 39.8957C38.867 39.7348 38.8001 39.5453 38.8356 39.3529C38.8711 39.1605 39.005 38.9709 39.1409 38.7785L39.1578 38.7546C39.6938 37.9958 40.2285 37.2388 40.9334 36.4809Z" fill="#E5D8DD"/>
<path d="M40.9334 36.4809C41.6465 35.7141 41.9813 35.2698 42.385 35.1434C42.7299 35.1434 43.0646 35.1436 43.3355 35.1761C43.8072 35.2718 44.215 35.4652 44.5507 35.7524C44.6857 35.9132 44.7854 36.1054 44.7516 36.2952C44.6836 36.6772 44.6372 37.3712 43.8681 38.116C42.5838 39.3596 41.8207 40.2426 40.8238 40.2815C40.0133 40.3131 39.2832 40.231 39.0019 39.8957C38.867 39.7348 38.8001 39.5453 38.8356 39.3529C38.8711 39.1605 39.005 38.9709 39.1409 38.7785L39.1578 38.7546C39.6938 37.9958 40.2285 37.2388 40.9334 36.4809Z" stroke="#E5D8DD" stroke-linecap="round"/>
</g>
<g filter="url(#filter12_f_442_2782)">
<path d="M7.79068 16.9366C8.53682 15.7725 8.88707 15.0979 9.30949 14.906C9.67035 14.906 10.0206 14.9062 10.304 14.9557C10.7975 15.101 11.2242 15.3946 11.5755 15.8306C11.7167 16.0748 11.821 16.3666 11.7856 16.6547C11.7145 17.2346 11.666 18.2883 10.8612 19.419C9.51752 21.3069 8.71907 22.6476 7.67606 22.7065C6.82803 22.7545 6.06415 22.6299 5.76985 22.1208C5.62869 21.8767 5.55864 21.5889 5.59579 21.2968C5.63294 21.0046 5.77304 20.7169 5.91526 20.4247L5.93292 20.3884C6.49375 19.2364 7.05321 18.0873 7.79068 16.9366Z" fill="#E5D8DD"/>
<path d="M7.79068 16.9366C8.53682 15.7725 8.88707 15.0979 9.30949 14.906C9.67035 14.906 10.0206 14.9062 10.304 14.9557C10.7975 15.101 11.2242 15.3946 11.5755 15.8306C11.7167 16.0748 11.821 16.3666 11.7856 16.6547C11.7145 17.2346 11.666 18.2883 10.8612 19.419C9.51752 21.3069 8.71907 22.6476 7.67606 22.7065C6.82803 22.7545 6.06415 22.6299 5.76985 22.1208C5.62869 21.8767 5.55864 21.5889 5.59579 21.2968C5.63294 21.0046 5.77304 20.7169 5.91526 20.4247L5.93292 20.3884C6.49375 19.2364 7.05321 18.0873 7.79068 16.9366Z" stroke="#E5D8DD" stroke-linecap="round"/>
</g>
<path d="M40.802 35.5353C40.8688 35.5353 40.9355 35.5353 40.9365 35.4406C40.9376 35.3458 40.8708 35.1562 40.5996 34.9609" stroke="white" stroke-opacity="0.45" stroke-linecap="round"/>
<g filter="url(#filter13_f_442_2782)">
<path d="M38.8262 41.5692C39.1221 41.4765 39.7155 41.1032 40.3111 40.5889C40.4605 40.4478 40.6077 40.3089 40.7572 40.2142C40.9067 40.1194 41.0539 40.0731 41.2056 40.0254" stroke="#FFFAF6" stroke-opacity="0.84" stroke-width="2" stroke-linecap="round"/>
</g>
<g filter="url(#filter14_f_442_2782)">
<path d="M9.4942 14.0956C9.99595 13.4103 10.8809 12.4299 10.9243 12.7538C10.968 13.0798 10.6193 13.8325 10.5436 13.9632C10.2594 14.4861 10.034 15.0143 9.82522 15.5466C9.61642 16.079 9.31875 16.5562 9.06855 17.1253C8.81606 17.6995 8.60242 18.3321 8.3686 18.8504C8.07431 19.5028 8.0293 19.7523 7.77097 20.2631C7.50533 20.7883 7.30633 21.6322 6.86124 21.961C6.75389 22.0403 6.60851 22.0747 6.61648 21.8077C6.63277 21.2623 6.7329 20.0278 6.96036 19.3634C7.21969 18.6059 7.5201 17.5414 8.36871 16.0086C8.77698 15.2711 9.15016 14.5655 9.4942 14.0956Z" fill="#FFEBDE"/>
<path d="M9.4942 14.0956C9.99595 13.4103 10.8809 12.4299 10.9243 12.7538C10.968 13.0798 10.6193 13.8325 10.5436 13.9632C10.2594 14.4861 10.034 15.0143 9.82522 15.5466C9.61642 16.079 9.31875 16.5562 9.06855 17.1253C8.81606 17.6995 8.60242 18.3321 8.3686 18.8504C8.07431 19.5028 8.0293 19.7523 7.77097 20.2631C7.50533 20.7883 7.30633 21.6322 6.86124 21.961C6.75389 22.0403 6.60851 22.0747 6.61648 21.8077C6.63277 21.2623 6.7329 20.0278 6.96036 19.3634C7.21969 18.6059 7.5201 17.5414 8.36871 16.0086C8.77698 15.2711 9.15016 14.5655 9.4942 14.0956Z" stroke="#FFEBDE" stroke-width="0.5" stroke-linecap="round"/>
</g>
<defs>
<filter id="filter0_f_442_2782" x="1.20703" y="10.6436" width="47.3086" height="38.6924" filterUnits="userSpaceOnUse" color-interpolation-filters="sRGB">
<feFlood flood-opacity="0" result="BackgroundImageFix"/>
<feBlend mode="normal" in="SourceGraphic" in2="BackgroundImageFix" result="shape"/>
<feGaussianBlur stdDeviation="2" result="effect1_foregroundBlur_442_2782"/>
</filter>
<filter id="filter1_f_442_2782" x="2.75781" y="3.32129" width="48.8594" height="45.4043" filterUnits="userSpaceOnUse" color-interpolation-filters="sRGB">
<feFlood flood-opacity="0" result="BackgroundImageFix"/>
<feBlend mode="normal" in="SourceGraphic" in2="BackgroundImageFix" result="shape"/>
<feGaussianBlur stdDeviation="2" result="effect1_foregroundBlur_442_2782"/>
</filter>
<filter id="filter2_f_442_2782" x="0.689453" y="16.0615" width="47.3086" height="33.8213" filterUnits="userSpaceOnUse" color-interpolation-filters="sRGB">
<feFlood flood-opacity="0" result="BackgroundImageFix"/>
<feBlend mode="normal" in="SourceGraphic" in2="BackgroundImageFix" result="shape"/>
<feGaussianBlur stdDeviation="2" result="effect1_foregroundBlur_442_2782"/>
</filter>
<filter id="filter3_f_442_2782" x="5.67383" y="5.56641" width="40.2324" height="42.7178" filterUnits="userSpaceOnUse" color-interpolation-filters="sRGB">
<feFlood flood-opacity="0" result="BackgroundImageFix"/>
<feBlend mode="normal" in="SourceGraphic" in2="BackgroundImageFix" result="shape"/>
<feGaussianBlur stdDeviation="2" result="effect1_foregroundBlur_442_2782"/>
</filter>
<filter id="filter4_f_442_2782" x="6.22461" y="14.3633" width="36.2617" height="28.4209" filterUnits="userSpaceOnUse" color-interpolation-filters="sRGB">
<feFlood flood-opacity="0" result="BackgroundImageFix"/>
<feBlend mode="normal" in="SourceGraphic" in2="BackgroundImageFix" result="shape"/>
<feGaussianBlur stdDeviation="2" result="effect1_foregroundBlur_442_2782"/>
</filter>
<filter id="filter5_f_442_2782" x="15.8477" y="0.939453" width="36.3418" height="31.8496" filterUnits="userSpaceOnUse" color-interpolation-filters="sRGB">
<feFlood flood-opacity="0" result="BackgroundImageFix"/>
<feBlend mode="normal" in="SourceGraphic" in2="BackgroundImageFix" result="shape"/>
<feGaussianBlur stdDeviation="2" result="effect1_foregroundBlur_442_2782"/>
</filter>
<filter id="filter6_f_442_2782" x="22.1145" y="3.57734" width="3.51719" height="1.32969" filterUnits="userSpaceOnUse" color-interpolation-filters="sRGB">
<feFlood flood-opacity="0" result="BackgroundImageFix"/>
<feBlend mode="normal" in="SourceGraphic" in2="BackgroundImageFix" result="shape"/>
<feGaussianBlur stdDeviation="0.1" result="effect1_foregroundBlur_442_2782"/>
</filter>
<filter id="filter7_f_442_2782" x="16.9777" y="4.82441" width="4.30039" height="2.32871" filterUnits="userSpaceOnUse" color-interpolation-filters="sRGB">
<feFlood flood-opacity="0" result="BackgroundImageFix"/>
<feBlend mode="normal" in="SourceGraphic" in2="BackgroundImageFix" result="shape"/>
<feGaussianBlur stdDeviation="0.1" result="effect1_foregroundBlur_442_2782"/>
</filter>
<filter id="filter8_f_442_2782" x="4.24219" y="24.3574" width="28.8262" height="22.498" filterUnits="userSpaceOnUse" color-interpolation-filters="sRGB">
<feFlood flood-opacity="0" result="BackgroundImageFix"/>
<feBlend mode="normal" in="SourceGraphic" in2="BackgroundImageFix" result="shape"/>
<feGaussianBlur stdDeviation="0.5" result="effect1_foregroundBlur_442_2782"/>
</filter>
<filter id="filter9_f_442_2782" x="27.9453" y="41.3232" width="9.09766" height="4.54395" filterUnits="userSpaceOnUse" color-interpolation-filters="sRGB">
<feFlood flood-opacity="0" result="BackgroundImageFix"/>
<feBlend mode="normal" in="SourceGraphic" in2="BackgroundImageFix" result="shape"/>
<feGaussianBlur stdDeviation="0.5" result="effect1_foregroundBlur_442_2782"/>
</filter>
<filter id="filter10_f_442_2782" x="6.5" y="31.6016" width="16.7969" height="14.377" filterUnits="userSpaceOnUse" color-interpolation-filters="sRGB">
<feFlood flood-opacity="0" result="BackgroundImageFix"/>
<feBlend mode="normal" in="SourceGraphic" in2="BackgroundImageFix" result="shape"/>
<feGaussianBlur stdDeviation="0.5" result="effect1_foregroundBlur_442_2782"/>
</filter>
<filter id="filter11_f_442_2782" x="36.3262" y="32.6436" width="10.9316" height="10.1445" filterUnits="userSpaceOnUse" color-interpolation-filters="sRGB">
<feFlood flood-opacity="0" result="BackgroundImageFix"/>
<feBlend mode="normal" in="SourceGraphic" in2="BackgroundImageFix" result="shape"/>
<feGaussianBlur stdDeviation="1" result="effect1_foregroundBlur_442_2782"/>
</filter>
<filter id="filter12_f_442_2782" x="2.08594" y="11.4062" width="13.207" height="14.8096" filterUnits="userSpaceOnUse" color-interpolation-filters="sRGB">
<feFlood flood-opacity="0" result="BackgroundImageFix"/>
<feBlend mode="normal" in="SourceGraphic" in2="BackgroundImageFix" result="shape"/>
<feGaussianBlur stdDeviation="1.5" result="effect1_foregroundBlur_442_2782"/>
</filter>
<filter id="filter13_f_442_2782" x="36.8262" y="38.0254" width="6.37891" height="5.54395" filterUnits="userSpaceOnUse" color-interpolation-filters="sRGB">
<feFlood flood-opacity="0" result="BackgroundImageFix"/>
<feBlend mode="normal" in="SourceGraphic" in2="BackgroundImageFix" result="shape"/>
<feGaussianBlur stdDeviation="0.5" result="effect1_foregroundBlur_442_2782"/>
</filter>
<filter id="filter14_f_442_2782" x="5.56523" y="11.6404" width="6.4125" height="11.4271" filterUnits="userSpaceOnUse" color-interpolation-filters="sRGB">
<feFlood flood-opacity="0" result="BackgroundImageFix"/>
<feBlend mode="normal" in="SourceGraphic" in2="BackgroundImageFix" result="shape"/>
<feGaussianBlur stdDeviation="0.4" result="effect1_foregroundBlur_442_2782"/>
</filter>
<linearGradient id="paint0_linear_442_2782" x1="17.104" y1="43.9297" x2="38.8971" y2="4.27047" gradientUnits="userSpaceOnUse">
<stop stop-color="#D6D2A9"/>
<stop offset="1" stop-color="#83856E"/>
</linearGradient>
<linearGradient id="paint1_linear_442_2782" x1="19.6915" y1="44.4179" x2="35.6443" y2="6.63213" gradientUnits="userSpaceOnUse">
<stop stop-color="#D3D1B5" stop-opacity="0.5"/>
<stop offset="1" stop-color="#97988A" stop-opacity="0.5"/>
</linearGradient>
<linearGradient id="paint2_linear_442_2782" x1="37.2762" y1="6.34549" x2="21.7666" y2="41.2067" gradientUnits="userSpaceOnUse">
<stop stop-color="#82826C"/>
<stop offset="1" stop-color="#BDBB9B"/>
</linearGradient>
<linearGradient id="paint3_linear_442_2782" x1="22.7921" y1="32.2152" x2="15.2179" y2="46.2605" gradientUnits="userSpaceOnUse">
<stop stop-color="#B8B595"/>
<stop offset="1" stop-color="#8B8F75"/>
</linearGradient>
</defs>
</svg>
