<svg width="50" height="55" viewBox="0 0 50 55" fill="none" xmlns="http://www.w3.org/2000/svg">
<path d="M26.4619 3.75195C38.8574 3.75206 48.9082 13.8245 48.9082 26.252C48.9082 38.6794 38.8574 48.7518 26.4619 48.752C14.0664 48.752 4.01562 38.6795 4.01562 26.252C4.01562 13.8244 14.0664 3.75195 26.4619 3.75195Z" fill="url(#paint0_linear_536_3219)" fill-opacity="0.59" stroke="#F7EAE7"/>
<ellipse cx="26.4609" cy="25.9961" rx="21.5" ry="22" fill="url(#paint1_linear_536_3219)" fill-opacity="0.5"/>
<circle cx="26.4609" cy="26.4961" r="22.5" fill="#F5CDC1" fill-opacity="0.2"/>
<path d="M48.9609 26.4961C48.9609 38.9225 38.8873 48.9961 26.4609 48.9961C14.0345 48.9961 3.96094 38.9225 3.96094 26.4961C3.96094 14.0697 14.0345 3.99609 26.4609 3.99609C38.8873 3.99609 48.9609 14.0697 48.9609 26.4961Z" fill="url(#paint2_linear_536_3219)" fill-opacity="0.5"/>
<g filter="url(#filter0_f_536_3219)">
<path d="M43.8719 32.4961C43.8719 39.9519 32.3988 44.9961 23.9176 42.9961C15.9283 42.9961 5.96094 32.4519 5.96094 24.9961C5.96094 17.5402 7.94753 11.9961 15.9369 11.9961C23.9262 11.9961 43.8719 25.0402 43.8719 32.4961Z" fill="#F3D4C4" fill-opacity="0.39"/>
</g>
<g filter="url(#filter1_f_536_3219)">
<path d="M45.3684 32.9961C45.3684 41.7704 32.9895 52.3318 23.8388 49.9781C15.2187 49.9781 5.96094 38.2704 5.96094 29.4961C5.96094 20.7218 11.8069 11.9961 20.427 11.9961C29.0471 11.9961 45.3684 24.2218 45.3684 32.9961Z" fill="#F7D5C5" fill-opacity="0.32"/>
</g>
<g filter="url(#filter2_f_536_3219)">
<path d="M41.907 40.4497C37.4176 44.4497 33.9258 47.4501 25.9445 47.4501C13.8227 47.4501 3.99609 37.6004 3.99609 25.4501C3.99609 13.2998 16.4668 29.4497 24.9469 33.4496C30.3631 36.0043 41.907 40.4497 41.907 40.4497Z" fill="url(#paint3_linear_536_3219)"/>
</g>
<g filter="url(#filter3_f_536_3219)">
<ellipse cx="19.56" cy="13.2299" rx="19.56" ry="13.2299" transform="matrix(0.567822 0.823152 -0.821903 0.569627 21.7461 6)" fill="#F7DAC7" fill-opacity="0.3"/>
</g>
<g filter="url(#filter4_f_536_3219)">
<ellipse cx="15.4743" cy="7.45335" rx="15.4743" ry="7.45335" transform="matrix(0.841358 0.540478 -0.538683 0.842509 11.043 22)" fill="#F1A5AA" fill-opacity="0.11"/>
</g>
<g filter="url(#filter5_f_536_3219)">
<ellipse cx="10.4918" cy="15.0279" rx="10.4918" ry="15.0279" transform="matrix(0.577914 -0.816098 0.814816 0.57972 12.9609 17.125)" fill="#BE9999" fill-opacity="0.18"/>
</g>
<g filter="url(#filter6_f_536_3219)">
<path d="M6.19922 27.9639C6.19922 28.315 6.5558 31.0391 6.69707 31.4639C6.84221 31.9003 7.05463 32.5391 7.1959 32.9639C7.34104 33.4003 7.06949 33.2184 7.35203 33.7313C7.59685 34.1757 7.74038 34.5973 7.89911 35.0221C8.07434 35.4911 8.44514 35.8701 8.72768 36.2949C9.0214 36.7366 9.39751 37.143 9.68005 37.5678C9.96259 37.9926 10.2441 38.4158 10.4388 38.8406C10.6554 39.3132 11.1605 39.6186 11.4964 39.9723C11.8122 40.3048 12.2597 40.9876 12.683 41.4639C13.4725 42.3521 14.2545 42.6271 14.6783 42.9639C15.1196 43.3146 15.7335 43.6807 16.1748 43.9639C16.6805 44.2884 17.2475 44.6743 17.6713 44.8695C18.1253 45.0785 18.744 45.1982 19.1678 45.4639C19.563 45.7117 20.2405 45.7167 20.6643 45.9639C21.0885 46.2113 20.5784 45.9127 21.0022 46.1423C21.4005 46.3581 21.8482 46.443 22.272 46.5846C22.6958 46.7262 23.5937 46.4616 24.0175 46.6912C24.4158 46.907 25.0746 46.8823 26.1514 46.9039C29.1443 46.9639 29.7007 46.6935 30.142 46.4639" stroke="#F0A4A9" stroke-opacity="0.63" stroke-width="2" stroke-linecap="round"/>
</g>
<g filter="url(#filter7_f_536_3219)">
<path d="M28.582 46.4115C29.0094 46.4115 29.87 46.3166 30.8015 46.244C31.9697 45.8867 33.457 45.3577 33.7432 45.2384C33.8873 45.1665 34.0293 45.0716 34.4624 44.8301" stroke="#FFEBDE" stroke-linecap="round"/>
</g>
<g filter="url(#filter8_f_536_3219)">
<path d="M8.80859 34.1953C8.83561 34.3511 8.99405 34.7143 9.12767 35.0539C9.25213 35.3701 9.41912 35.6783 9.87788 36.1967C10.2411 36.6072 10.5498 37.0788 10.8145 37.5352C11.1785 38.1627 11.4213 38.5362 11.9859 39.1326C12.3156 39.481 12.5786 39.938 12.8561 40.2764C13.1546 40.6405 13.5513 40.9243 14.272 41.5963C14.7019 41.9972 15.0987 42.2181 15.4408 42.5165C15.7305 42.7691 16.0689 42.8909 16.4489 43.1357C16.7694 43.3421 17.0901 43.4834 17.4049 43.6902C17.7197 43.897 18.0849 44.1027 18.5042 44.3216C18.9156 44.5364 19.3663 44.7715 19.761 44.9914C20.0621 45.1592 20.4401 45.2867 20.7812 45.4537C21.0953 45.5693 21.4081 45.6711 21.7221 45.7733C21.8009 45.7989 21.8785 45.8242 22.1148 45.849" stroke="#FCD4D2" stroke-linecap="round"/>
</g>
<path d="M41.0977 33.2459C41.0977 33.3107 41.0977 33.3754 41.1943 33.3764C41.2909 33.3773 41.4841 33.3126 41.488 33.0498" stroke="#DAE9D3" stroke-opacity="0.45" stroke-linecap="round"/>
<g filter="url(#filter9_f_536_3219)">
<path d="M39.6612 38.3338C40.349 37.5483 40.6718 37.0931 41.0612 36.9637C41.3938 36.9637 41.7167 36.9639 41.9779 36.9972C42.4328 37.0953 42.8261 37.2934 43.1499 37.5876C43.28 37.7523 43.3762 37.9492 43.3436 38.1436C43.2781 38.5348 43.2333 39.2458 42.4915 40.0087C41.2529 41.2826 40.5169 42.1871 39.5555 42.2269C38.7738 42.2593 38.0697 42.1752 37.7984 41.8317C37.6683 41.667 37.6037 41.4728 37.638 41.2757C37.6722 41.0786 37.8014 40.8844 37.9325 40.6873L37.9325 40.6873L37.9487 40.6629C38.4657 39.8856 38.9814 39.1102 39.6612 38.3338Z" fill="#E5D8DD"/>
<path d="M39.6612 38.3338C40.349 37.5483 40.6718 37.0931 41.0612 36.9637C41.3938 36.9637 41.7167 36.9639 41.9779 36.9972C42.4328 37.0953 42.8261 37.2934 43.1499 37.5876C43.28 37.7523 43.3762 37.9492 43.3436 38.1436C43.2781 38.5348 43.2333 39.2458 42.4915 40.0087C41.2529 41.2826 40.5169 42.1871 39.5555 42.2269C38.7738 42.2593 38.0697 42.1752 37.7984 41.8317C37.6683 41.667 37.6037 41.4728 37.638 41.2757C37.6722 41.0786 37.8014 40.8844 37.9325 40.6873L37.9325 40.6873L37.9487 40.6629C38.4657 39.8856 38.9814 39.1102 39.6612 38.3338Z" stroke="#E5D8DD" stroke-linecap="round"/>
</g>
<g filter="url(#filter10_f_536_3219)">
<path d="M7.69666 18.3132C8.41627 17.1207 8.75406 16.4297 9.16146 16.2332C9.50949 16.2332 9.84729 16.2334 10.1206 16.284C10.5966 16.4329 11.0081 16.7336 11.3469 17.1803C11.483 17.4304 11.5836 17.7293 11.5496 18.0244C11.481 18.6184 11.4341 19.6978 10.658 20.8561C9.36209 22.79 8.59203 24.1633 7.58611 24.2237C6.76824 24.2728 6.03152 24.1451 5.74769 23.6237C5.61155 23.3736 5.54399 23.0788 5.57981 22.7796C5.61564 22.4803 5.75076 22.1855 5.88792 21.8863L5.90496 21.8491C6.44585 20.6691 6.98541 19.4919 7.69666 18.3132Z" fill="#E5D8DD"/>
<path d="M7.69666 18.3132C8.41627 17.1207 8.75406 16.4297 9.16146 16.2332C9.50949 16.2332 9.84729 16.2334 10.1206 16.284C10.5966 16.4329 11.0081 16.7336 11.3469 17.1803C11.483 17.4304 11.5836 17.7293 11.5496 18.0244C11.481 18.6184 11.4341 19.6978 10.658 20.8561C9.36209 22.79 8.59203 24.1633 7.58611 24.2237C6.76824 24.2728 6.03152 24.1451 5.74769 23.6237C5.61155 23.3736 5.54399 23.0788 5.57981 22.7796C5.61564 22.4803 5.75076 22.1855 5.88792 21.8863L5.90496 21.8491C6.44585 20.6691 6.98541 19.4919 7.69666 18.3132Z" stroke="#E5D8DD" stroke-linecap="round"/>
</g>
<path d="M39.535 37.3647C39.5994 37.3647 39.6638 37.3647 39.6648 37.2677C39.6658 37.1706 39.6014 36.9764 39.3398 36.7764" stroke="white" stroke-opacity="0.45" stroke-linecap="round"/>
<g filter="url(#filter11_f_536_3219)">
<path d="M37.6289 43.5452C37.9143 43.4504 38.4866 43.068 39.061 42.5411C39.2051 42.3966 39.3471 42.2543 39.4913 42.1572C39.6354 42.0602 39.7774 42.0127 39.9237 41.9639" stroke="#FFFAF6" stroke-opacity="0.84" stroke-width="2" stroke-linecap="round"/>
</g>
<g filter="url(#filter12_f_536_3219)">
<path d="M9.33897 15.4026C9.82287 14.7006 10.6763 13.6964 10.7182 14.0281C10.7604 14.3621 10.424 15.1332 10.3511 15.267C10.077 15.8027 9.85959 16.3437 9.65822 16.889C9.45684 17.4343 9.16976 17.9231 8.92845 18.5061C8.68494 19.0943 8.4789 19.7423 8.25339 20.2733C7.96957 20.9415 7.92615 21.1971 7.67701 21.7203C7.42082 22.2583 7.2289 23.1228 6.79963 23.4596C6.69609 23.5408 6.55589 23.5761 6.56358 23.3025C6.57928 22.7439 6.67586 21.4793 6.89523 20.7987C7.14534 20.0228 7.43506 18.9324 8.2535 17.3622C8.64725 16.6068 9.00716 15.884 9.33897 15.4026Z" fill="#FFEBDE"/>
<path d="M9.33897 15.4026C9.82287 14.7006 10.6763 13.6964 10.7182 14.0281C10.7604 14.3621 10.424 15.1332 10.3511 15.267C10.077 15.8027 9.85959 16.3437 9.65822 16.889C9.45684 17.4343 9.16976 17.9231 8.92845 18.5061C8.68494 19.0943 8.4789 19.7423 8.25339 20.2733C7.96957 20.9415 7.92615 21.1971 7.67701 21.7203C7.42082 22.2583 7.2289 23.1228 6.79963 23.4596C6.69609 23.5408 6.55589 23.5761 6.56358 23.3025C6.57928 22.7439 6.67586 21.4793 6.89523 20.7987C7.14534 20.0228 7.43506 18.9324 8.2535 17.3622C8.64725 16.6068 9.00716 15.884 9.33897 15.4026Z" stroke="#FFEBDE" stroke-width="0.5" stroke-linecap="round"/>
</g>
<defs>
<filter id="filter0_f_536_3219" x="1.96094" y="7.99609" width="45.9102" height="39.4404" filterUnits="userSpaceOnUse" color-interpolation-filters="sRGB">
<feFlood flood-opacity="0" result="BackgroundImageFix"/>
<feBlend mode="normal" in="SourceGraphic" in2="BackgroundImageFix" result="shape"/>
<feGaussianBlur stdDeviation="2" result="effect1_foregroundBlur_536_3219"/>
</filter>
<filter id="filter1_f_536_3219" x="1.96094" y="7.99609" width="47.4062" height="46.3154" filterUnits="userSpaceOnUse" color-interpolation-filters="sRGB">
<feFlood flood-opacity="0" result="BackgroundImageFix"/>
<feBlend mode="normal" in="SourceGraphic" in2="BackgroundImageFix" result="shape"/>
<feGaussianBlur stdDeviation="2" result="effect1_foregroundBlur_536_3219"/>
</filter>
<filter id="filter2_f_536_3219" x="-0.00390625" y="17" width="45.9102" height="34.4502" filterUnits="userSpaceOnUse" color-interpolation-filters="sRGB">
<feFlood flood-opacity="0" result="BackgroundImageFix"/>
<feBlend mode="normal" in="SourceGraphic" in2="BackgroundImageFix" result="shape"/>
<feGaussianBlur stdDeviation="2" result="effect1_foregroundBlur_536_3219"/>
</filter>
<filter id="filter3_f_536_3219" x="2.4375" y="7.85547" width="39.0859" height="43.5625" filterUnits="userSpaceOnUse" color-interpolation-filters="sRGB">
<feFlood flood-opacity="0" result="BackgroundImageFix"/>
<feBlend mode="normal" in="SourceGraphic" in2="BackgroundImageFix" result="shape"/>
<feGaussianBlur stdDeviation="2" result="effect1_foregroundBlur_536_3219"/>
</filter>
<filter id="filter4_f_536_3219" x="2.41797" y="22.1836" width="35.2578" height="28.9189" filterUnits="userSpaceOnUse" color-interpolation-filters="sRGB">
<feFlood flood-opacity="0" result="BackgroundImageFix"/>
<feBlend mode="normal" in="SourceGraphic" in2="BackgroundImageFix" result="shape"/>
<feGaussianBlur stdDeviation="2" result="effect1_foregroundBlur_536_3219"/>
</filter>
<filter id="filter5_f_536_3219" x="13.6016" y="1.05957" width="35.3359" height="32.4307" filterUnits="userSpaceOnUse" color-interpolation-filters="sRGB">
<feFlood flood-opacity="0" result="BackgroundImageFix"/>
<feBlend mode="normal" in="SourceGraphic" in2="BackgroundImageFix" result="shape"/>
<feGaussianBlur stdDeviation="2" result="effect1_foregroundBlur_536_3219"/>
</filter>
<filter id="filter6_f_536_3219" x="4.19922" y="25.9639" width="27.9414" height="22.9482" filterUnits="userSpaceOnUse" color-interpolation-filters="sRGB">
<feFlood flood-opacity="0" result="BackgroundImageFix"/>
<feBlend mode="normal" in="SourceGraphic" in2="BackgroundImageFix" result="shape"/>
<feGaussianBlur stdDeviation="0.5" result="effect1_foregroundBlur_536_3219"/>
</filter>
<filter id="filter7_f_536_3219" x="27.082" y="43.3301" width="8.87891" height="4.58105" filterUnits="userSpaceOnUse" color-interpolation-filters="sRGB">
<feFlood flood-opacity="0" result="BackgroundImageFix"/>
<feBlend mode="normal" in="SourceGraphic" in2="BackgroundImageFix" result="shape"/>
<feGaussianBlur stdDeviation="0.5" result="effect1_foregroundBlur_536_3219"/>
</filter>
<filter id="filter8_f_536_3219" x="7.30859" y="32.6953" width="16.3047" height="14.6533" filterUnits="userSpaceOnUse" color-interpolation-filters="sRGB">
<feFlood flood-opacity="0" result="BackgroundImageFix"/>
<feBlend mode="normal" in="SourceGraphic" in2="BackgroundImageFix" result="shape"/>
<feGaussianBlur stdDeviation="0.5" result="effect1_foregroundBlur_536_3219"/>
</filter>
<filter id="filter9_f_536_3219" x="35.1289" y="34.4639" width="10.7227" height="10.2695" filterUnits="userSpaceOnUse" color-interpolation-filters="sRGB">
<feFlood flood-opacity="0" result="BackgroundImageFix"/>
<feBlend mode="normal" in="SourceGraphic" in2="BackgroundImageFix" result="shape"/>
<feGaussianBlur stdDeviation="1" result="effect1_foregroundBlur_536_3219"/>
</filter>
<filter id="filter10_f_536_3219" x="2.07031" y="12.7334" width="12.9844" height="15" filterUnits="userSpaceOnUse" color-interpolation-filters="sRGB">
<feFlood flood-opacity="0" result="BackgroundImageFix"/>
<feBlend mode="normal" in="SourceGraphic" in2="BackgroundImageFix" result="shape"/>
<feGaussianBlur stdDeviation="1.5" result="effect1_foregroundBlur_536_3219"/>
</filter>
<filter id="filter11_f_536_3219" x="35.6289" y="39.9639" width="6.29688" height="5.58203" filterUnits="userSpaceOnUse" color-interpolation-filters="sRGB">
<feFlood flood-opacity="0" result="BackgroundImageFix"/>
<feBlend mode="normal" in="SourceGraphic" in2="BackgroundImageFix" result="shape"/>
<feGaussianBlur stdDeviation="0.5" result="effect1_foregroundBlur_536_3219"/>
</filter>
<filter id="filter12_f_536_3219" x="5.5125" y="12.9129" width="6.26016" height="11.6557" filterUnits="userSpaceOnUse" color-interpolation-filters="sRGB">
<feFlood flood-opacity="0" result="BackgroundImageFix"/>
<feBlend mode="normal" in="SourceGraphic" in2="BackgroundImageFix" result="shape"/>
<feGaussianBlur stdDeviation="0.4" result="effect1_foregroundBlur_536_3219"/>
</filter>
<linearGradient id="paint0_linear_536_3219" x1="19.9305" y1="45.9951" x2="42.9571" y2="6.54211" gradientUnits="userSpaceOnUse">
<stop stop-color="#F8DAC6"/>
<stop offset="1" stop-color="#BD9898"/>
</linearGradient>
<linearGradient id="paint1_linear_536_3219" x1="19.1195" y1="46.4247" x2="36.9158" y2="6.60044" gradientUnits="userSpaceOnUse">
<stop stop-color="#F6D2C3"/>
<stop offset="1" stop-color="#DC9D9F"/>
</linearGradient>
<linearGradient id="paint2_linear_536_3219" x1="-18.7237" y1="-21.5721" x2="-35.5987" y2="14.2234" gradientUnits="userSpaceOnUse">
<stop stop-color="#EBA39B"/>
<stop offset="1" stop-color="#F8DAC6"/>
</linearGradient>
<linearGradient id="paint3_linear_536_3219" x1="21.4551" y1="33.4497" x2="13.4456" y2="47.4335" gradientUnits="userSpaceOnUse">
<stop stop-color="#F6D2C1"/>
<stop offset="1" stop-color="#D1A3A2"/>
</linearGradient>
</defs>
</svg>
